HIERARCHY
ROOT Hips
{
	OFFSET 0.00000 0.00000 0.00000
	CHANNELS 6 Xposition Yposition Zposition Zrotation Yrotation Xrotation 
	JOINT LHipJoint
	{
		OFFSET 0 0 0
		CHANNELS 3 Zrotation Yrotation Xrotation
		JOINT LeftUpLeg
		{
			OFFSET 1.39187 -1.60231 0.69152
			CHANNELS 3 Zrotation Yrotation Xrotation
			JOINT LeftLeg
			{
				OFFSET 2.43314 -6.68499 0.00000
				CHANNELS 3 Zrotation Yrotation Xrotation
				JOINT LeftFoot
				{
					OFFSET 2.32059 -6.37578 0.00000
					CHANNELS 3 Zrotation Yrotation Xrotation
					JOINT LeftToeBase
					{
						OFFSET 0.23021 -0.63250 1.71305
						CHANNELS 3 Zrotation Yrotation Xrotation
						End Site
						{
							OFFSET 0.00000 -0.00000 0.91647
						}
					}
				}
			}
		}
	}
	JOINT RHipJoint
	{
		OFFSET 0 0 0
		CHANNELS 3 Zrotation Yrotation Xrotation
		JOINT RightUpLeg
		{
			OFFSET -1.19407 -1.60231 0.69152
			CHANNELS 3 Zrotation Yrotation Xrotation
			JOINT RightLeg
			{
				OFFSET -2.44411 -6.71513 0.00000
				CHANNELS 3 Zrotation Yrotation Xrotation
				JOINT RightFoot
				{
					OFFSET -2.31924 -6.37207 0.00000
					CHANNELS 3 Zrotation Yrotation Xrotation
					JOINT RightToeBase
					{
						OFFSET -0.19473 -0.53502 1.87724
						CHANNELS 3 Zrotation Yrotation Xrotation
						End Site
						{
							OFFSET -0.00000 -0.00000 0.98293
						}
					}
				}
			}
		}
	}
	JOINT LowerBack
	{
		OFFSET 0 0 0
		CHANNELS 3 Zrotation Yrotation Xrotation
		JOINT Spine
		{
			OFFSET -0.01120 1.87307 0.09613
			CHANNELS 3 Zrotation Yrotation Xrotation
			JOINT Spine1
			{
				OFFSET 0.01099 1.87818 0.04834
				CHANNELS 3 Zrotation Yrotation Xrotation
				JOINT Neck
				{
					OFFSET 0 0 0
					CHANNELS 3 Zrotation Yrotation Xrotation
					JOINT Neck1
					{
						OFFSET 0.01702 1.40324 -0.12579
						CHANNELS 3 Zrotation Yrotation Xrotation
						JOINT Head
						{
							OFFSET -0.04239 1.38587 -0.01614
							CHANNELS 3 Zrotation Yrotation Xrotation
							End Site
							{
								OFFSET -0.02510 1.47031 -0.00154
							}
						}
					}
				}
				JOINT LeftShoulder
				{
					OFFSET 0 0 0
					CHANNELS 3 Zrotation Yrotation Xrotation
					JOINT LeftArm
					{
						OFFSET 2.95699 0.62343 0.11653
						CHANNELS 3 Zrotation Yrotation Xrotation
						JOINT LeftForeArm
						{
							OFFSET 4.68382 -0.00000 -0.00000
							CHANNELS 3 Zrotation Yrotation Xrotation
							JOINT LeftHand
							{
								OFFSET 2.98124 -0.00000 -0.00000
								CHANNELS 3 Zrotation Yrotation Xrotation
								JOINT LeftFingerBase
								{
									OFFSET 0 0 0
									CHANNELS 3 Zrotation Yrotation Xrotation
									JOINT LeftHandIndex1
									{
										OFFSET 0.70759 -0.00000 0.00000
										CHANNELS 3 Zrotation Yrotation Xrotation
										End Site
										{
											OFFSET 0.57048 -0.00000 0.00000
										}
									}
								}
								JOINT LThumb
								{
									OFFSET 0 0 0
									CHANNELS 3 Zrotation Yrotation Xrotation
									End Site
									{
										OFFSET 0.57919 -0.00000 0.57919
									}
								}
							}
						}
					}
				}
				JOINT RightShoulder
				{
					OFFSET 0 0 0
					CHANNELS 3 Zrotation Yrotation Xrotation
					JOINT RightArm
					{
						OFFSET -2.99027 0.88714 -0.02793
						CHANNELS 3 Zrotation Yrotation Xrotation
						JOINT RightForeArm
						{
							OFFSET -4.75876 -0.00000 -0.00000
							CHANNELS 3 Zrotation Yrotation Xrotation
							JOINT RightHand
							{
								OFFSET -2.93293 -0.00000 -0.00000
								CHANNELS 3 Zrotation Yrotation Xrotation
								JOINT RightFingerBase
								{
									OFFSET 0 0 0
									CHANNELS 3 Zrotation Yrotation Xrotation
									JOINT RightHandIndex1
									{
										OFFSET -0.83175 -0.00000 0.00000
										CHANNELS 3 Zrotation Yrotation Xrotation
										End Site
										{
											OFFSET -0.67058 -0.00000 0.00000
										}
									}
								}
								JOINT RThumb
								{
									OFFSET 0 0 0
									CHANNELS 3 Zrotation Yrotation Xrotation
									End Site
									{
										OFFSET -0.68082 -0.00000 0.68082
									}
								}
							}
						}
					}
				}
			}
		}
	}
}
MOTION
Frames: 13
Frame Time: .0083333
45.9006 16.5341 -0.8901 0 0 0 0 0 0 -21 0 0 0 0 0 0 0 0 0 0 0 0 0 0 21 0 0 0 0 0 0 0 0 0 0 0 0 0 0 0 0 0 0 0 0 0 0 -16 0 0 21 0 0 11 0 0 0 -8 0 0 0 0 0 0 0 0 0 0 0 0 0 0 0 0 0 0 0 0 8 0 0 0 0 0 0 0 0 0 0 0 0 0 0 0 0 0
45.9006 16.5341 -0.8901 -174.4640 -75.5904 -169.2410 0.0000 0.0000 0.0000 -12.9176 -21.1264 -19.8075 2.4629 9.7702 28.2357 0.8678 8.0537 -22.2872 0.0151 -0.7944 -2.1833 0.0000 0.0000 0.0000 20.1155 9.9917 -17.5170 -1.9663 -8.7954 25.1575 0.0274 -11.3843 -15.8066 -0.5065 4.5623 -12.6641 -4.4769 0.9562 -13.4816 0.5495 1.7048 -3.1420 3.3850 0.7391 4.0855 -4.2036 -1.2688 5.3028 3.5803 -1.8028 -7.0500 1.9965 -0.9285 -3.1440 0.0000 0.0000 0.0000 -93.3931 -2.9558 -12.5986 8.4014 -14.2014 -1.0484 -0.0000 -0.0000 47.6748 8.3415 22.4349 3.2027 -7.1250 0.0000 -0.0000 -20.7379 51.4326 -3.4092 0.0000 0.0000 0.0000 92.3874 0.4428 -5.1465 -9.5762 16.0739 -1.3552 0.0000 0.0000 30.9596 -15.6080 13.4030 -3.7050 7.1250 -0.0000 -0.0000 8.0745 -16.1730 5.5620
45.9002 16.5325 -0.9131 -174.3390 -75.5032 -169.6430 0.0000 0.0000 0.0000 -12.9049 -21.3051 -19.3463 2.4611 9.7668 28.2247 0.8419 8.4481 -22.3715 0.0151 -0.7930 -2.1793 0.0000 0.0000 0.0000 20.2976 9.9449 -17.0350 -1.9268 -8.7120 24.8985 0.0213 -11.3717 -15.8776 -0.4774 4.4311 -12.2926 -4.7557 1.0257 -12.5560 0.7571 1.7613 -3.5369 3.7344 0.7956 3.1428 -4.3983 -1.2858 5.3715 3.4440 -1.8546 -6.5039 1.9788 -0.9442 -2.9678 -0.0000 -0.0000 0.0000 -93.8391 -2.0145 -13.3533 8.3821 -14.1703 -1.0437 -0.0000 -0.0000 48.4216 8.5265 22.0456 3.2208 -7.1250 0.0000 -0.0000 -20.3688 51.0979 -3.1720 -0.0000 -0.0000 0.0000 91.9703 -0.5264 -4.1264 -9.8137 16.4476 -1.4217 0.0000 0.0000 29.8683 -15.4668 12.8833 -3.5304 7.1250 -0.0000 -0.0000 8.1709 -16.7152 5.5326
45.9120 16.5352 -0.9384 -174.2920 -75.5705 -169.5360 0.0000 0.0000 0.0000 -12.7216 -21.1769 -19.6477 2.4729 9.7885 28.2945 0.8559 8.2858 -22.3652 0.0165 -0.8300 -2.2812 0.0000 0.0000 0.0000 20.4258 9.9843 -17.0985 -1.8925 -8.6384 24.6706 0.0479 -11.5512 -15.7480 -0.4783 4.4350 -12.3037 -5.2971 1.0370 -12.0107 1.0636 1.7740 -4.0047 4.3386 0.8304 2.3222 -4.6038 -1.3362 5.6436 3.2739 -1.9613 -6.3117 1.9648 -0.9871 -2.9492 0.0000 0.0000 0.0000 -94.4197 -1.3043 -14.5831 8.2727 -13.9940 -1.0171 -0.0000 -0.0000 49.8166 8.5475 21.9297 3.2128 -7.1250 0.0000 -0.0000 -20.2920 50.9926 -3.1052 0.0000 0.0000 0.0000 91.3996 -1.3354 -3.2751 -9.9841 16.7147 -1.4704 0.0000 0.0000 28.7431 -15.5061 12.6056 -3.4649 7.1250 -0.0000 -0.0000 8.1443 -16.9963 5.4638
45.9308 16.5373 -0.9645 -174.5260 -75.8803 -169.2790 0.0000 0.0000 0.0000 -12.6608 -20.9395 -19.8830 2.4782 9.7982 28.3257 0.8910 7.8237 -22.3139 0.0232 -0.9842 -2.7053 0.0000 0.0000 0.0000 20.5177 10.0166 -17.0150 -1.8599 -8.5680 24.4530 0.1089 -12.0475 -15.5848 -0.4973 4.5211 -12.5475 -4.7833 0.9503 -13.4166 0.6122 1.7501 -2.9269 3.6342 0.7548 4.2606 -4.4495 -1.2899 5.2662 3.7921 -1.8338 -7.3387 2.1188 -0.9452 -3.2338 -0.0000 -0.0000 0.0000 -93.7610 -3.1502 -16.2489 7.9811 -13.5222 -0.9477 -0.0000 -0.0000 51.4508 8.5200 22.1406 3.2315 -7.1250 0.0000 -0.0000 -20.4219 51.1860 -3.2263 -0.0000 -0.0000 0.0000 92.0625 0.5035 -3.1361 -9.9295 16.6292 -1.4547 0.0000 0.0000 28.6998 -15.6828 12.4141 -3.4540 7.1250 -0.0000 -0.0000 8.0222 -17.1792 5.3479
45.9268 16.5363 -0.9862 -174.4010 -75.7446 -169.4450 0.0000 0.0000 0.0000 -12.5927 -21.0126 -19.7339 2.4825 9.8060 28.3509 0.8754 8.0998 -22.3912 0.0285 -1.0898 -2.9960 0.0000 0.0000 0.0000 20.6355 10.1186 -16.7958 -1.8342 -8.5119 24.2799 0.1192 -12.1357 -15.5672 -0.5034 4.5484 -12.6250 -4.6605 1.0581 -13.5807 0.5342 1.8905 -2.8664 3.5117 0.8206 4.4080 -4.4711 -1.2630 5.3606 3.9159 -1.7931 -7.3665 2.1654 -0.9296 -3.2633 -0.0000 0.0000 0.0000 -93.7474 -3.0369 -16.8673 7.9168 -13.4180 -0.9327 -0.0000 -0.0000 51.9227 8.5316 22.5059 3.2864 -7.1250 0.0000 -0.0000 -20.5941 51.5302 -3.4344 -0.0000 0.0000 0.0000 92.1492 0.4892 -3.2082 -9.9590 16.6754 -1.4631 0.0000 0.0000 28.7605 -15.7706 12.3742 -3.4633 7.1250 -0.0000 -0.0000 7.9614 -17.2137 5.3005
45.9232 16.5354 -1.0044 -174.2250 -75.7231 -169.6320 0.0000 0.0000 0.0000 -12.4797 -21.2932 -19.5845 2.4818 9.8048 28.3469 0.8407 8.4711 -22.3794 0.0307 -1.1312 -3.1100 0.0000 0.0000 0.0000 20.7679 10.0772 -16.6749 -1.8120 -8.4630 24.1294 0.1059 -12.0840 -15.6884 -0.4683 4.3892 -12.1742 -4.4550 1.1071 -13.7535 0.4720 1.9383 -2.8322 3.3442 0.8422 4.5440 -4.3610 -1.2714 5.4713 3.8188 -1.8058 -7.4014 2.1159 -0.9357 -3.2964 0.0000 -0.0000 0.0000 -93.7570 -2.9327 -18.0540 7.7907 -13.2130 -0.9037 -0.0000 -0.0000 52.9393 8.6565 22.4794 3.3315 -7.1250 0.0000 -0.0000 -20.4624 51.5259 -3.4087 0.0000 -0.0000 0.0000 92.1460 0.5445 -3.8509 -9.8687 16.5340 -1.4374 0.0000 0.0000 29.4812 -15.5357 12.9172 -3.5560 7.1250 -0.0000 -0.0000 8.1235 -16.6755 5.5069
45.9409 16.5370 -1.0299 -174.1670 -75.9019 -169.5860 0.0000 0.0000 0.0000 -12.2787 -21.1761 -19.8425 2.4817 9.8046 28.3463 0.8564 8.1968 -22.2982 0.0328 -1.1697 -3.2159 0.0000 0.0000 0.0000 20.9036 10.2216 -16.6478 -1.7897 -8.4136 23.9776 0.1133 -12.2539 -15.8427 -0.4168 4.1440 -11.4820 -4.5066 1.0336 -13.6717 0.5045 1.8358 -2.9434 3.3856 0.7954 4.3878 -4.4218 -1.2286 5.5139 3.7740 -1.7585 -7.3199 2.1091 -0.9087 -3.2788 0.0000 -0.0000 0.0000 -93.8644 -2.7603 -19.6852 7.6405 -12.9685 -0.8697 -0.0000 -0.0000 54.3874 8.7894 22.2252 3.3471 -7.1250 0.0000 -0.0000 -20.2093 51.3091 -3.2531 0.0000 -0.0000 0.0000 92.0157 0.4826 -3.9558 -9.8075 16.4378 -1.4200 0.0000 0.0000 29.7106 -15.2986 13.4526 -3.6412 7.1250 -0.0000 -0.0000 8.2871 -16.1467 5.7163
45.9538 16.5376 -1.0540 -174.2650 -75.9563 -169.5560 0.0000 0.0000 0.0000 -12.2173 -21.0039 -19.8714 2.4811 9.8034 28.3423 0.8745 7.9890 -22.2962 0.0333 -1.1780 -3.2388 0.0000 0.0000 0.0000 21.0044 10.3575 -16.4312 -1.7682 -8.3655 23.8299 0.1280 -12.4579 -15.9437 -0.3927 4.0238 -11.1437 -4.6374 1.0221 -13.4843 0.5437 1.8264 -2.9933 3.4926 0.7946 4.2277 -4.5696 -1.2043 5.5731 3.8254 -1.7368 -7.2568 2.1524 -0.8959 -3.2692 -0.0000 -0.0000 0.0000 -93.9903 -2.5567 -20.8768 7.5441 -12.8112 -0.8482 -0.0000 -0.0000 55.4187 8.8195 22.3658 3.3788 -7.1250 0.0000 -0.0000 -20.2509 51.4459 -3.3301 -0.0000 -0.0000 0.0000 91.8861 0.3111 -3.5552 -9.8492 16.5033 -1.4318 0.0000 0.0000 29.4186 -15.3509 13.6204 -3.6988 7.1250 -0.0000 -0.0000 8.2516 -15.9713 5.7230
45.9614 16.5355 -1.0748 -174.1360 -75.9017 -169.5360 0.0000 0.0000 0.0000 -12.0338 -20.8924 -20.1091 2.4809 9.8030 28.3412 0.8821 7.9072 -22.2994 0.0396 -1.2836 -3.5295 0.0000 0.0000 0.0000 21.1108 10.4540 -16.5033 -1.7443 -8.3117 23.6649 0.1341 -12.4977 -15.9155 -0.3908 4.0143 -11.1168 -4.6534 1.0932 -13.5843 0.5429 1.9212 -3.0701 3.5176 0.8417 4.1917 -4.5059 -1.2646 5.6891 3.7624 -1.8207 -7.3140 2.1264 -0.9373 -3.3074 -0.0000 -0.0000 0.0000 -94.0496 -2.4754 -22.2854 7.4055 -12.5847 -0.8177 -0.0000 -0.0000 56.7512 8.9209 22.5420 3.4437 -7.1250 0.0000 -0.0000 -20.2431 51.6282 -3.4217 -0.0000 -0.0000 0.0000 91.8525 0.1318 -3.2605 -9.9548 16.6689 -1.4620 0.0000 0.0000 29.1267 -15.2880 13.6689 -3.6958 7.1250 -0.0000 -0.0000 8.2948 -15.9268 5.7616
45.9665 16.5332 -1.0960 -174.1210 -75.9407 -169.7590 0.0000 0.0000 0.0000 -12.0262 -20.8871 -19.8560 2.4797 9.8010 28.3346 0.8835 7.9428 -22.3402 0.0460 -1.3838 -3.8054 0.0000 0.0000 0.0000 21.2449 10.4504 -16.1505 -1.7214 -8.2599 23.5062 0.1431 -12.5645 -15.8874 -0.3724 3.9193 -10.8499 -4.6723 1.1493 -13.3162 0.5254 1.9889 -3.0690 3.5120 0.8809 4.0402 -4.3395 -1.3520 5.6244 3.6220 -1.9323 -7.1540 2.0487 -0.9916 -3.2351 0.0000 -0.0000 0.0000 -94.0942 -2.3512 -23.4891 7.3051 -12.4203 -0.7960 -0.0000 -0.0000 57.9254 8.9301 22.6795 3.4672 -7.1250 0.0000 -0.0000 -20.3041 51.7588 -3.4994 0.0000 -0.0000 0.0000 91.8719 0.0419 -3.4499 -9.9840 16.7145 -1.4703 0.0000 0.0000 29.2479 -15.1975 13.8648 -3.7244 7.1250 -0.0000 -0.0000 8.3573 -15.7341 5.8412
45.9542 16.5331 -1.1182 -173.8940 -75.7250 -170.0320 0.0000 0.0000 0.0000 -11.9463 -21.0300 -19.5825 2.4764 9.7949 28.3151 0.8614 8.3494 -22.4653 0.0416 -1.3169 -3.6213 0.0000 0.0000 0.0000 21.3729 10.6290 -15.8697 -1.7021 -8.2160 23.3720 0.1339 -12.4940 -15.9140 -0.3320 3.7029 -10.2423 -4.5742 1.2855 -13.5780 0.4907 2.1700 -3.0317 3.4590 0.9652 4.2110 -4.2264 -1.4106 5.6722 3.5661 -2.0070 -7.0389 2.0111 -1.0299 -3.2017 0.0000 -0.0000 0.0000 -94.1025 -2.0632 -23.7224 7.2971 -12.4071 -0.7942 -0.0000 -0.0000 58.1526 8.8253 22.8065 3.4440 -7.1250 0.0000 -0.0000 -20.4685 51.8604 -3.5822 0.0000 -0.0000 0.0000 91.8961 0.0573 -3.8067 -9.9267 16.6248 -1.4539 0.0000 0.0000 29.4051 -15.2677 14.1388 -3.8147 7.1250 -0.0000 -0.0000 8.3106 -15.4491 5.8594
45.9707 16.5328 -1.1400 -174.0670 -76.1431 -169.6730 0.0000 0.0000 0.0000 -11.7528 -21.1738 -19.8965 2.4699 9.7830 28.2768 0.8780 8.0183 -22.3504 0.0393 -1.2793 -3.5177 0.0000 0.0000 0.0000 21.4227 10.7813 -15.9718 -1.6868 -8.1807 23.2644 0.1673 -12.9274 -16.1140 -0.2671 3.3248 -9.1844 -4.6396 1.2047 -13.6377 0.4395 2.0715 -3.1123 3.4262 0.9169 4.1669 -4.1278 -1.4294 5.7146 3.5903 -2.0230 -7.0729 2.0035 -1.0417 -3.2211 0.0000 0.0000 0.0000 -94.0412 -1.8795 -24.2087 7.2360 -12.3069 -0.7812 -0.0000 -0.0000 58.6417 8.8525 22.7185 3.4422 -7.1250 0.0000 -0.0000 -20.3977 51.7824 -3.5289 0.0000 0.0000 0.0000 91.9890 0.1252 -3.8800 -9.9488 16.6594 -1.4602 0.0000 0.0000 29.2386 -15.3390 13.8901 -3.7674 7.1250 -0.0000 -0.0000 8.2608 -15.6970 5.7789
